# 3ds Max Wavefront OBJ Exporter v0.97b - (c)2007 guruware
# File Created: 22.07.2017 23:06:11

mtllib Axe.mtl

#
# object Box001
#

v  -12.6094 35.4484 0.2389
v  6.5887 39.8277 1.1890
v  -16.0212 40.8344 0.2389
v  6.5887 42.3975 1.1890
v  -16.7480 44.9672 0.2389
v  6.5887 44.9672 1.1890
v  -16.0212 49.1001 0.2389
v  6.5887 47.5370 1.1890
v  -12.6094 54.4860 0.2389
v  6.5887 50.1067 1.1890
v  -12.6094 35.4484 -0.3549
v  6.5887 39.8277 -1.3050
v  -16.0212 40.8344 -0.3549
v  6.5887 42.3975 -1.3050
v  -16.7480 44.9672 -0.3549
v  6.5887 44.9672 -1.3050
v  -16.0212 49.1001 -0.3549
v  6.5887 47.5370 -1.3050
v  -12.6094 54.4860 -0.3549
v  6.5887 50.1067 -1.3050
v  -6.1878 47.5370 1.2209
v  -6.6677 44.9672 1.2209
v  -6.1878 42.3975 1.2209
v  -5.0266 39.8277 1.2209
v  -5.0266 39.8277 -1.3369
v  -6.1878 42.3975 -1.3369
v  -6.6677 44.9672 -1.3369
v  -6.1878 47.5370 -1.3369
v  -5.0266 50.1067 -1.3369
v  -5.0266 50.1067 1.2209
v  -1.6072 42.3975 1.7182
v  -0.7806 39.8277 1.7182
v  -0.7806 39.8277 -1.8342
v  -1.6072 42.3975 -1.8342
v  -1.9488 44.9672 -1.8342
v  -1.6072 47.5370 -1.8342
v  -0.7806 50.1067 -1.8342
v  -0.7806 50.1067 1.7182
v  -1.6072 47.5370 1.7182
v  -1.9488 44.9672 1.7182
v  -12.5598 44.9672 0.5651
v  -11.9149 41.8189 0.5651
v  -9.2507 37.9416 0.5651
v  -9.2507 37.9416 -0.6811
v  -11.9149 41.8189 -0.6811
v  -12.5598 44.9672 -0.6811
v  -11.9149 48.1155 -0.6811
v  -9.2507 51.9929 -0.6811
v  -9.2507 51.9929 0.5651
v  -11.9149 48.1155 0.5651
# 50 vertices

vn -0.0662 -0.0438 0.9968
vn -0.0896 -0.0567 0.9944
vn -0.0876 -0.0358 0.9955
vn -0.0731 -0.0276 0.9969
vn -0.0731 -0.0276 0.9969
vn -0.0876 -0.0358 0.9955
vn -0.0914 -0.0000 0.9958
vn -0.0776 -0.0000 0.9970
vn -0.0776 -0.0000 0.9970
vn -0.0914 -0.0000 0.9958
vn -0.0876 0.0358 0.9955
vn -0.0731 0.0276 0.9969
vn -0.0731 0.0276 0.9969
vn -0.0876 0.0358 0.9955
vn -0.0896 0.0567 0.9944
vn -0.0662 0.0438 0.9968
vn -0.0662 -0.0438 -0.9968
vn -0.0731 -0.0276 -0.9969
vn -0.0876 -0.0358 -0.9955
vn -0.0896 -0.0567 -0.9944
vn -0.0731 -0.0276 -0.9969
vn -0.0776 0.0000 -0.9970
vn -0.0914 0.0000 -0.9958
vn -0.0876 -0.0358 -0.9955
vn -0.0776 0.0000 -0.9970
vn -0.0731 0.0276 -0.9969
vn -0.0876 0.0358 -0.9955
vn -0.0914 0.0000 -0.9958
vn -0.0731 0.0276 -0.9969
vn -0.0662 0.0438 -0.9968
vn -0.0896 0.0567 -0.9944
vn -0.0876 0.0358 -0.9955
vn 0.5960 -0.8030 -0.0000
vn 0.5960 -0.8030 -0.0000
vn 0.4984 -0.8669 -0.0000
vn 0.4984 -0.8669 -0.0000
vn 1.0000 0.0000 -0.0000
vn 1.0000 0.0000 -0.0000
vn 1.0000 0.0000 -0.0000
vn 1.0000 0.0000 -0.0000
vn 1.0000 0.0000 -0.0000
vn 1.0000 0.0000 -0.0000
vn 1.0000 0.0000 -0.0000
vn 1.0000 0.0000 -0.0000
vn 1.0000 0.0000 -0.0000
vn 1.0000 0.0000 -0.0000
vn 1.0000 0.0000 -0.0000
vn 1.0000 0.0000 -0.0000
vn 1.0000 0.0000 -0.0000
vn 1.0000 0.0000 -0.0000
vn 1.0000 0.0000 -0.0000
vn 1.0000 0.0000 -0.0000
vn 0.0000 1.0000 0.0000
vn 0.0000 1.0000 0.0000
vn -0.0000 1.0000 0.0000
vn -0.0000 1.0000 0.0000
vn -0.8448 0.5351 0.0000
vn -0.8448 0.5351 0.0000
vn -0.9326 0.3610 0.0000
vn -0.9326 0.3610 0.0000
vn -0.9326 0.3610 0.0000
vn -0.9326 0.3610 0.0000
vn -1.0000 0.0000 0.0000
vn -1.0000 -0.0000 -0.0000
vn -1.0000 -0.0000 -0.0000
vn -1.0000 0.0000 0.0000
vn -0.9326 -0.3610 -0.0000
vn -0.9326 -0.3610 -0.0000
vn -0.9326 -0.3610 -0.0000
vn -0.9326 -0.3610 -0.0000
vn -0.8448 -0.5351 -0.0000
vn -0.8448 -0.5351 -0.0000
vn -0.1182 -0.0507 0.9917
vn -0.0074 -0.0048 1.0000
vn -0.0290 -0.0097 0.9995
vn -0.1113 -0.0384 0.9931
vn -0.1113 -0.0384 0.9931
vn -0.0290 -0.0097 0.9995
vn -0.0297 -0.0000 0.9996
vn -0.1085 0.0000 0.9941
vn -0.1085 0.0000 0.9941
vn -0.0297 -0.0000 0.9996
vn -0.0290 0.0097 0.9995
vn -0.1113 0.0384 0.9931
vn -0.1113 0.0384 0.9931
vn -0.0290 0.0097 0.9995
vn -0.0074 0.0048 1.0000
vn -0.1182 0.0507 0.9917
vn -0.1113 -0.0384 -0.9931
vn -0.0290 -0.0097 -0.9995
vn -0.0074 -0.0048 -1.0000
vn -0.1182 -0.0507 -0.9917
vn -0.1085 0.0000 -0.9941
vn -0.0297 0.0000 -0.9996
vn -0.0290 -0.0097 -0.9995
vn -0.1113 -0.0384 -0.9931
vn -0.1113 0.0384 -0.9931
vn -0.0290 0.0097 -0.9995
vn -0.0297 0.0000 -0.9996
vn -0.1085 0.0000 -0.9941
vn -0.1182 0.0507 -0.9917
vn -0.0074 0.0048 -1.0000
vn -0.0290 0.0097 -0.9995
vn -0.1113 0.0384 -0.9931
vn 0.1912 -0.9816 -0.0000
vn 0.0000 -1.0000 -0.0000
vn 0.0000 -1.0000 -0.0000
vn 0.1912 -0.9816 -0.0000
vn 0.1912 0.9816 0.0000
vn 0.4984 0.8669 0.0000
vn 0.4984 0.8669 0.0000
vn 0.1912 0.9816 0.0000
vn -0.0000 1.0000 0.0000
vn 0.1912 0.9816 0.0000
vn 0.1912 0.9816 0.0000
vn -0.0000 1.0000 0.0000
vn -0.0074 -0.0048 1.0000
vn 0.0716 0.0000 0.9974
vn 0.0673 0.0022 0.9977
vn -0.0290 -0.0097 0.9995
vn -0.0290 -0.0097 0.9995
vn 0.0673 0.0022 0.9977
vn 0.0639 0.0000 0.9980
vn -0.0297 -0.0000 0.9996
vn -0.0297 -0.0000 0.9996
vn 0.0639 0.0000 0.9980
vn 0.0673 -0.0022 0.9977
vn -0.0290 0.0097 0.9995
vn -0.0290 0.0097 0.9995
vn 0.0673 -0.0022 0.9977
vn 0.0716 0.0000 0.9974
vn -0.0074 0.0048 1.0000
vn -0.0290 -0.0097 -0.9995
vn 0.0673 0.0022 -0.9977
vn 0.0716 0.0000 -0.9974
vn -0.0074 -0.0048 -1.0000
vn -0.0297 0.0000 -0.9996
vn 0.0639 -0.0000 -0.9980
vn 0.0673 0.0022 -0.9977
vn -0.0290 -0.0097 -0.9995
vn -0.0290 0.0097 -0.9995
vn 0.0673 -0.0022 -0.9977
vn 0.0639 -0.0000 -0.9980
vn -0.0297 0.0000 -0.9996
vn -0.0074 0.0048 -1.0000
vn 0.0716 0.0000 -0.9974
vn 0.0673 -0.0022 -0.9977
vn -0.0290 0.0097 -0.9995
vn 0.0000 -1.0000 -0.0000
vn -0.0000 -1.0000 -0.0000
vn -0.0000 -1.0000 -0.0000
vn 0.0000 -1.0000 -0.0000
vn -0.0896 -0.0567 0.9944
vn -0.1182 -0.0507 0.9917
vn -0.1113 -0.0384 0.9931
vn -0.0876 -0.0358 0.9955
vn -0.0876 -0.0358 0.9955
vn -0.1113 -0.0384 0.9931
vn -0.1085 0.0000 0.9941
vn -0.0914 -0.0000 0.9958
vn -0.0914 -0.0000 0.9958
vn -0.1085 0.0000 0.9941
vn -0.1113 0.0384 0.9931
vn -0.0876 0.0358 0.9955
vn -0.0876 0.0358 0.9955
vn -0.1113 0.0384 0.9931
vn -0.1182 0.0507 0.9917
vn -0.0896 0.0567 0.9944
vn -0.0876 -0.0358 -0.9955
vn -0.1113 -0.0384 -0.9931
vn -0.1182 -0.0507 -0.9917
vn -0.0896 -0.0567 -0.9944
vn -0.0914 0.0000 -0.9958
vn -0.1085 0.0000 -0.9941
vn -0.1113 -0.0384 -0.9931
vn -0.0876 -0.0358 -0.9955
vn -0.0876 0.0358 -0.9955
vn -0.1113 0.0384 -0.9931
vn -0.1085 0.0000 -0.9941
vn -0.0914 0.0000 -0.9958
vn -0.0896 0.0567 -0.9944
vn -0.1182 0.0507 -0.9917
vn -0.1113 0.0384 -0.9931
vn -0.0876 0.0358 -0.9955
vn 0.4984 -0.8669 -0.0000
vn 0.1912 -0.9816 -0.0000
vn 0.1912 -0.9816 -0.0000
vn 0.4984 -0.8669 -0.0000
vn 0.4984 0.8669 0.0000
vn 0.5960 0.8030 0.0000
vn 0.5960 0.8030 0.0000
vn 0.4984 0.8669 0.0000
# 192 vertex normals

vt 0.1384 0.0076 0.0000
vt 0.2337 0.0781 0.0000
vt 0.1587 0.1879 0.0000
vt 0.0423 0.1600 0.0000
vt 0.1406 0.2768 0.0000
vt 0.0218 0.2768 0.0000
vt 0.1587 0.3658 0.0000
vt 0.0423 0.3937 0.0000
vt 0.2337 0.4756 0.0000
vt 0.1385 0.5460 0.0000
vt 0.1073 0.9789 0.0000
vt 0.0358 0.8574 0.0000
vt 0.1293 0.8370 0.0000
vt 0.1859 0.9267 0.0000
vt 0.0197 0.7658 0.0000
vt 0.1148 0.7658 0.0000
vt 0.0358 0.6741 0.0000
vt 0.1293 0.6946 0.0000
vt 0.1073 0.5526 0.0000
vt 0.1859 0.6049 0.0000
vt 0.6071 0.8815 0.0000
vt 0.5508 0.8812 0.0000
vt 0.5507 0.8233 0.0000
vt 0.6071 0.8235 0.0000
vt 0.5505 0.7658 0.0000
vt 0.6071 0.7658 0.0000
vt 0.5507 0.7083 0.0000
vt 0.6071 0.7080 0.0000
vt 0.5508 0.6503 0.0000
vt 0.6071 0.6501 0.0000
vt 0.3845 0.6526 0.0000
vt 0.3874 0.5739 0.0000
vt 0.3543 0.1315 0.0000
vt 0.4751 0.1316 0.0000
vt 0.4518 0.2042 0.0000
vt 0.3217 0.2042 0.0000
vt 0.4422 0.2768 0.0000
vt 0.3081 0.2768 0.0000
vt 0.4518 0.3495 0.0000
vt 0.3217 0.3495 0.0000
vt 0.3543 0.4222 0.0000
vt 0.2599 0.8258 0.0000
vt 0.3644 0.8233 0.0000
vt 0.3845 0.8789 0.0000
vt 0.2871 0.8871 0.0000
vt 0.2491 0.7658 0.0000
vt 0.3567 0.7658 0.0000
vt 0.2599 0.7057 0.0000
vt 0.3644 0.7082 0.0000
vt 0.2871 0.6445 0.0000
vt 0.1044 0.9877 0.0000
vt 0.1945 0.9531 0.0000
vt 0.0236 0.8622 0.0000
vt 0.0065 0.7658 0.0000
vt 0.0236 0.6693 0.0000
vt 0.1945 0.5785 0.0000
vt 0.1044 0.5438 0.0000
vt 0.6839 0.1316 0.0000
vt 0.6839 0.2042 0.0000
vt 0.6839 0.2768 0.0000
vt 0.6839 0.3495 0.0000
vt 0.6839 0.4221 0.0000
vt 0.4751 0.4221 0.0000
vt 0.2942 0.9461 0.0000
vt 0.3874 0.9577 0.0000
vt 0.2942 0.5855 0.0000
vt 0.5539 0.9378 0.0000
vt 0.5539 0.5937 0.0000
# 68 texture coords

g Box001
usemtl wire_177028149
s 1
f 1/1/1 43/2/2 42/3/3 3/4/4 
f 3/4/5 42/3/6 41/5/7 5/6/8 
f 5/6/9 41/5/10 50/7/11 7/8/12 
f 7/8/13 50/7/14 49/9/15 9/10/16 
f 11/11/17 13/12/18 45/13/19 44/14/20 
f 13/12/21 15/15/22 46/16/23 45/13/24 
f 15/15/25 17/17/26 47/18/27 46/16/28 
f 17/17/29 19/19/30 48/20/31 47/18/32 
s 2
f 1/51/33 11/11/34 44/14/35 43/52/36 
s 4
f 2/21/37 12/22/38 14/23/39 4/24/40 
f 4/24/41 14/23/42 16/25/43 6/26/44 
f 6/26/45 16/25/46 18/27/47 8/28/48 
f 8/28/49 18/27/50 20/29/51 10/30/52 
s 2
f 10/68/53 20/29/54 37/31/55 38/32/56 
s 4
f 9/57/57 19/19/58 17/17/59 7/55/60 
f 7/55/61 17/17/62 15/15/63 5/54/64 
f 5/54/65 15/15/66 13/12/67 3/53/68 
f 3/53/69 13/12/70 11/11/71 1/51/72 
s 1
f 24/33/73 32/34/74 31/35/75 23/36/76 
f 23/36/77 31/35/78 40/37/79 22/38/80 
f 22/38/81 40/37/82 39/39/83 21/40/84 
f 21/40/85 39/39/86 38/63/87 30/41/88 
f 26/42/89 34/43/90 33/44/91 25/45/92 
f 27/46/93 35/47/94 34/43/95 26/42/96 
f 28/48/97 36/49/98 35/47/99 27/46/100 
f 29/50/101 37/31/102 36/49/103 28/48/104 
s 2
f 25/45/105 33/44/106 32/65/107 24/64/108 
f 29/50/109 48/20/110 49/56/111 30/66/112 
f 37/31/113 29/50/114 30/66/115 38/32/116 
s 1
f 32/34/117 2/58/118 4/59/119 31/35/120 
f 31/35/121 4/59/122 6/60/123 40/37/124 
f 40/37/125 6/60/126 8/61/127 39/39/128 
f 39/39/129 8/61/130 10/62/131 38/63/132 
f 34/43/133 14/23/134 12/22/135 33/44/136 
f 35/47/137 16/25/138 14/23/139 34/43/140 
f 36/49/141 18/27/142 16/25/143 35/47/144 
f 37/31/145 20/29/146 18/27/147 36/49/148 
s 2
f 33/44/149 12/22/150 2/67/151 32/65/152 
s 1
f 43/2/153 24/33/154 23/36/155 42/3/156 
f 42/3/157 23/36/158 22/38/159 41/5/160 
f 41/5/161 22/38/162 21/40/163 50/7/164 
f 50/7/165 21/40/166 30/41/167 49/9/168 
f 45/13/169 26/42/170 25/45/171 44/14/172 
f 46/16/173 27/46/174 26/42/175 45/13/176 
f 47/18/177 28/48/178 27/46/179 46/16/180 
f 48/20/181 29/50/182 28/48/183 47/18/184 
s 2
f 44/14/185 25/45/186 24/64/187 43/52/188 
f 48/20/189 19/19/190 9/57/191 49/56/192 
# 48 polygons

#
# object Cylinder002
#

v  -1.2097 -4.7254 -0.0118
v  0.1762 -4.7254 1.3968
v  3.2536 -4.7254 0.8587
v  3.2536 -4.7254 -0.8823
v  0.1762 -4.7254 -1.4203
v  -1.7257 51.2015 -0.0118
v  0.1762 51.2015 1.3631
v  3.2536 51.2015 0.8380
v  3.2536 51.2015 -0.8615
v  0.1762 51.2015 -1.3867
v  0.6978 6.1300 0.5504
v  1.9159 6.1300 1.8041
v  4.7219 6.1300 1.3252
v  4.7219 6.1300 -0.2244
v  1.9159 6.1300 -0.7032
v  -1.3150 27.4637 -0.4267
v  0.1437 27.4637 0.8027
v  2.6984 27.4637 0.3331
v  2.6984 27.4637 -1.1864
v  0.1437 27.4637 -1.6560
v  -0.4417 45.5043 -0.1061
v  0.4135 45.5043 0.8853
v  2.6323 45.5043 0.5066
v  2.6323 45.5043 -0.7187
v  0.4135 45.5043 -1.0974
# 25 vertices

vn -0.7100 0.0886 0.6986
vn -0.7104 0.0886 0.6982
vn -0.7169 0.0299 0.6966
vn -0.7148 0.0319 0.6986
vn 0.1719 -0.0644 0.9830
vn 0.1712 -0.0645 0.9831
vn 0.1682 -0.0008 0.9857
vn 0.1690 -0.0031 0.9856
vn 0.9910 -0.1340 0.0000
vn 0.9910 -0.1340 -0.0000
vn 0.9998 -0.0205 -0.0000
vn 0.9998 -0.0201 -0.0000
vn 0.1721 0.0364 -0.9844
vn 0.1714 0.0367 -0.9845
vn 0.1682 0.0048 -0.9857
vn 0.1691 0.0035 -0.9856
vn -0.7038 0.1585 -0.6925
vn -0.7042 0.1587 -0.6920
vn -0.7168 0.0328 -0.6965
vn -0.7146 0.0294 -0.6989
vn 0.0000 -1.0000 0.0000
vn -0.0000 -1.0000 0.0000
vn -0.0000 -1.0000 -0.0000
vn 0.0000 -1.0000 -0.0000
vn -0.0000 -1.0000 0.0000
vn -0.0000 1.0000 -0.0000
vn -0.0000 1.0000 -0.0000
vn -0.0000 1.0000 -0.0000
vn -0.0000 1.0000 -0.0000
vn -0.0000 1.0000 -0.0000
vn -0.7169 0.0299 0.6966
vn -0.6490 -0.0048 0.7608
vn -0.6444 -0.0037 0.7647
vn -0.7148 0.0319 0.6986
vn 0.1682 -0.0008 0.9857
vn 0.1802 0.0272 0.9833
vn 0.1802 0.0255 0.9833
vn 0.1690 -0.0031 0.9856
vn 0.9998 -0.0205 -0.0000
vn 0.9988 0.0488 -0.0000
vn 0.9988 0.0496 -0.0000
vn 0.9998 -0.0201 -0.0000
vn 0.1682 0.0048 -0.9857
vn 0.1802 0.0008 -0.9836
vn 0.1803 -0.0006 -0.9836
vn 0.1691 0.0035 -0.9856
vn -0.7168 0.0328 -0.6965
vn -0.6490 -0.0267 -0.7603
vn -0.6442 -0.0279 -0.7644
vn -0.7146 0.0294 -0.6989
vn -0.6490 -0.0048 0.7608
vn -0.7360 -0.0767 0.6726
vn -0.7509 -0.0876 0.6545
vn -0.6444 -0.0037 0.7647
vn 0.1802 0.0272 0.9833
vn 0.1686 -0.0423 0.9848
vn 0.1681 -0.0417 0.9849
vn 0.1802 0.0255 0.9833
vn 0.9988 0.0488 -0.0000
vn 0.9986 -0.0524 -0.0000
vn 0.9986 -0.0536 -0.0000
vn 0.9988 0.0496 -0.0000
vn 0.1802 0.0008 -0.9836
vn 0.1688 -0.0087 -0.9856
vn 0.1682 -0.0095 -0.9857
vn 0.1803 -0.0006 -0.9836
vn -0.6490 -0.0267 -0.7603
vn -0.7385 -0.0173 -0.6740
vn -0.7537 -0.0086 -0.6572
vn -0.6442 -0.0279 -0.7644
vn -0.7360 -0.0767 0.6726
vn -0.5834 -0.0920 0.8070
vn -0.6102 -0.1055 0.7852
vn -0.7509 -0.0876 0.6545
vn 0.1686 -0.0423 0.9848
vn 0.1677 -0.0755 0.9829
vn 0.1677 -0.0755 0.9829
vn 0.1681 -0.0417 0.9849
vn 0.9986 -0.0524 -0.0000
vn 0.9941 -0.1084 -0.0000
vn 0.9941 -0.1084 -0.0000
vn 0.9986 -0.0536 -0.0000
vn 0.1688 -0.0087 -0.9856
vn 0.1681 -0.0430 -0.9848
vn 0.1681 -0.0430 -0.9848
vn 0.1682 -0.0095 -0.9857
vn -0.7385 -0.0173 -0.6740
vn -0.5818 -0.1178 -0.8048
vn -0.6086 -0.1106 -0.7857
vn -0.7537 -0.0086 -0.6572
# 90 vertex normals

vt 0.8907 0.0132 1.0000
vt 0.9218 0.0162 1.0000
vt 0.7786 0.0210 1.0000
vt 0.8082 0.0203 1.0000
vt 0.8596 0.0148 1.0000
vt 0.8992 0.9815 1.0000
vt 0.9360 0.9760 1.0000
vt 0.7825 0.9692 1.0000
vt 0.8107 0.9743 1.0000
vt 0.8623 0.9777 1.0000
vt 0.9737 0.0220 1.0000
vt 0.9872 0.9665 1.0000
vt 0.7963 0.5289 -0.2500
vt 0.7754 0.6482 -0.2500
vt 0.7079 0.6482 -0.2500
vt 0.6871 0.5289 -0.2500
vt 0.7417 0.4752 -0.2500
vt 0.7277 0.9177 0.2500
vt 0.6678 0.8349 0.2500
vt 0.6907 0.7008 0.2500
vt 0.7647 0.7008 0.2500
vt 0.7876 0.8349 0.2500
vt 0.8905 0.2035 1.0000
vt 0.9220 0.2044 1.0000
vt 0.9710 0.2057 1.0000
vt 0.7829 0.2071 1.0000
vt 0.8095 0.2063 1.0000
vt 0.8587 0.2042 1.0000
vt 0.9016 0.5713 1.0000
vt 0.9325 0.5706 1.0000
vt 0.9762 0.5698 1.0000
vt 0.8033 0.5711 1.0000
vt 0.8291 0.5705 1.0000
vt 0.8717 0.5713 1.0000
vt 0.8955 0.8807 1.0000
vt 0.9195 0.8791 1.0000
vt 0.9582 0.8758 1.0000
vt 0.8088 0.8767 1.0000
vt 0.8296 0.8784 1.0000
vt 0.8701 0.8801 1.0000
# 40 texture coords

g Cylinder002
usemtl wire_176026026
s 1
f 51/69/193 52/70/194 62/92/195 61/91/196 
s 2
f 52/70/197 53/79/198 63/93/199 62/92/200 
s 1
f 53/71/201 54/72/202 64/95/203 63/94/204 
s 2
f 54/72/205 55/73/206 65/96/207 64/95/208 
s 4
f 55/73/209 51/69/210 61/91/211 65/96/212 
s 8
f 55/81/213 54/82/214 53/83/215 52/84/216 51/85/217 
f 56/86/218 57/87/219 58/88/220 59/89/221 60/90/222 
s 1
f 62/92/223 67/98/224 66/97/225 61/91/226 
s 2
f 63/93/227 68/99/228 67/98/229 62/92/230 
s 1
f 64/95/231 69/101/232 68/100/233 63/94/234 
s 2
f 65/96/235 70/102/236 69/101/237 64/95/238 
s 4
f 61/91/239 66/97/240 70/102/241 65/96/242 
s 1
f 67/98/243 72/104/244 71/103/245 66/97/246 
s 2
f 68/99/247 73/105/248 72/104/249 67/98/250 
s 1
f 69/101/251 74/107/252 73/106/253 68/100/254 
s 2
f 70/102/255 75/108/256 74/107/257 69/101/258 
s 4
f 66/97/259 71/103/260 75/108/261 70/102/262 
s 1
f 72/104/263 57/75/264 56/74/265 71/103/266 
s 2
f 73/105/267 58/80/268 57/75/269 72/104/270 
s 1
f 74/107/271 59/77/272 58/76/273 73/106/274 
s 2
f 75/108/275 60/78/276 59/77/277 74/107/278 
s 4
f 71/103/279 56/74/280 60/78/281 75/108/282 
# 22 polygons

